<svg width="12" height="6" viewBox="0 0 12 6" fill="none" xmlns="http://www.w3.org/2000/svg">
<path d="M5.81334 0.400109C6.0084 0.401487 6.20299 0.470482 6.36447 0.623769L10.6909 4.91441C10.8038 5.03355 10.8025 5.21949 10.7041 5.33713C10.5895 5.45466 10.4107 5.45339 10.2976 5.35117L5.97123 1.06052C5.89055 0.975426 5.74425 0.974393 5.64612 1.05822L1.25954 5.28731C1.14491 5.40484 0.966221 5.38667 0.853268 5.26753C0.740315 5.1484 0.757884 4.96257 0.872509 4.84504L5.25897 0.632863C5.4226 0.481874 5.61827 0.398731 5.81334 0.400109Z" fill="#212B36"/>
<path fill-rule="evenodd" clip-rule="evenodd" d="M6.64614 0.339755L10.9813 4.63907C11.2396 4.9115 11.2343 5.32666 11.011 5.59372L11.0012 5.60546L10.9905 5.61642C10.7208 5.89294 10.2966 5.88953 10.0294 5.64788L10.0225 5.64168L5.80585 1.45986L1.54076 5.57181C1.23765 5.8766 0.799448 5.79214 0.562996 5.54275C0.275831 5.23987 0.349859 4.80803 0.586154 4.56576L0.595307 4.55637L4.98766 0.338835C5.21298 0.130925 5.50329 -0.00209181 5.81616 0.000118723C6.10737 0.00217618 6.40096 0.106884 6.63986 0.333661L6.64614 0.339755ZM1.25954 5.28731L5.64612 1.05822C5.74425 0.974393 5.89055 0.975426 5.97123 1.06052L10.2976 5.35117C10.4107 5.45339 10.5895 5.45466 10.7041 5.33713C10.8025 5.21949 10.8038 5.03355 10.6909 4.91441L6.36447 0.623769C6.20299 0.470482 6.0084 0.401487 5.81334 0.400109C5.61827 0.398731 5.4226 0.481874 5.25897 0.632863L0.872509 4.84504C0.757884 4.96257 0.740315 5.1484 0.853268 5.26753C0.966221 5.38667 1.14491 5.40484 1.25954 5.28731Z" fill="#212B36"/>
</svg>
